<?xml version="1.0" encoding="utf-8"?>
<!-- Generator: Adobe Illustrator 19.0.1, SVG Export Plug-In . SVG Version: 6.00 Build 0)  -->
<svg version="1.1" id="Слой_1" xmlns="http://www.w3.org/2000/svg" xmlns:xlink="http://www.w3.org/1999/xlink" x="0px" y="0px"
	 width="632.5px" height="210.2px" viewBox="0 0 632.5 210.2" style="enable-background:new 0 0 632.5 210.2;" xml:space="preserve"
	>
<style type="text/css">
	.st0{clip-path:url(#SVGID_2_);fill:#F15A29;}
	.st1{fill:#F15A29;}
	.st2{fill:#BCBEC0;}
	.st3{clip-path:url(#SVGID_4_);fill:#BCBEC0;}
	.st4{fill:#FFFFFF;}
</style>
<g>
	<g>
		<defs>
			<rect id="SVGID_1_" y="0" width="632.5" height="233.3"/>
		</defs>
		<clipPath id="SVGID_2_">
			<use xlink:href="#SVGID_1_"  style="overflow:visible;"/>
		</clipPath>
		<path class="st0" d="M625.6,69.3c-3,0-5.4,2.4-5.4,5.4c0,3,2.4,5.4,5.4,5.4c3,0,5.4-2.4,5.4-5.4C631,71.7,628.6,69.3,625.6,69.3
			 M625.6,81.6c-3.8,0-6.8-3.1-6.8-6.9c0-3.8,3.1-6.8,6.8-6.8c3.8,0,6.9,3.1,6.9,6.8C632.5,78.5,629.4,81.6,625.6,81.6"/>
	</g>
	<path class="st1" d="M624.4,74.3h1.5c0.5,0,0.8-0.3,0.8-0.8c0-0.5-0.4-0.7-0.9-0.7h-1.4V74.3z M622.6,71.3h3.4
		c1.2,0,2.4,0.5,2.4,1.9c0,0.7-0.4,1.4-1.1,1.7v0c0.7,0.2,0.9,1,1,1.6c0,0.3,0,1.3,0.3,1.5h-1.7c-0.2-0.2-0.2-0.9-0.2-1.1
		c0-0.7-0.2-1.4-1-1.4h-1.3v2.5h-1.8V71.3z"/>
	<path class="st1" d="M317.8,90.6c-0.6-4.3-3.8-6.7-8.1-6.7c-4.1,0-9.8,2.1-9.8,12.9c0,5.9,2.6,12.2,9.4,12.2c4.5,0,7.7-3,8.4-8.1
		h7.8c-1.4,9.2-7.1,14.3-16.3,14.3c-11.1,0-17.2-7.9-17.2-18.3c0-10.7,5.8-19.1,17.5-19.1c8.2,0,15.2,4.1,16,12.8H317.8z"/>
	<path class="st1" d="M358.4,96.4c0-6.1-3.1-12.5-10.1-12.5s-10.1,6.4-10.1,12.5c0,6.2,3.1,12.6,10.1,12.6S358.4,102.6,358.4,96.4
		 M330.3,96.4c0-10.9,6.5-18.7,17.9-18.7c11.4,0,17.9,7.8,17.9,18.7c0,10.9-6.5,18.8-17.9,18.8C336.9,115.2,330.3,107.3,330.3,96.4"
		/>
	<path class="st1" d="M372.7,78.7h7.4v5.2l0.1,0.1c2.3-3.9,6.4-6.3,11.1-6.3c7.7,0,12.6,4.1,12.6,12.1v24.4h-7.8V91.9
		c-0.1-5.6-2.3-8-6.9-8c-5.2,0-8.6,4.1-8.6,9.3v21h-7.8V78.7z"/>
	<path class="st1" d="M412.1,78.7h7.4v5.2l0.1,0.1c2.3-3.9,6.4-6.3,11.1-6.3c7.7,0,12.6,4.1,12.6,12.1v24.4h-7.8V91.9
		c-0.1-5.6-2.3-8-6.9-8c-5.2,0-8.6,4.1-8.6,9.3v21h-7.8V78.7z"/>
	<path class="st1" d="M475.9,93.3c-0.3-4.9-3.6-9.4-8.9-9.4c-5.4,0-9.1,4.1-9.3,9.4H475.9z M457.7,98.5c0,5.6,3,10.5,9.5,10.5
		c4.5,0,7.3-2,8.7-5.9h7.4c-1.7,7.8-8.3,12.1-16.1,12.1c-11.1,0-17.4-7.8-17.4-18.7c0-10.1,6.6-18.8,17.2-18.8
		c11.2,0,18.1,10.1,16.8,20.7H457.7z"/>
	<path class="st1" d="M513.7,90.6c-0.6-4.3-3.8-6.7-8.1-6.7c-4.1,0-9.8,2.1-9.8,12.9c0,5.9,2.6,12.2,9.4,12.2c4.5,0,7.7-3,8.4-8.1
		h7.8c-1.4,9.2-7.1,14.3-16.3,14.3c-11.1,0-17.2-7.9-17.2-18.3c0-10.7,5.8-19.1,17.5-19.1c8.2,0,15.2,4.1,16,12.8H513.7z"/>
	<path class="st1" d="M524.3,78.7h5.9V68.1h7.8v10.6h7.1v5.8h-7.1v19c0,3.2,0.3,4.9,3.8,4.9c1.1,0,2.2,0,3.3-0.3v6
		c-1.7,0.1-3.4,0.4-5.1,0.4c-8.2,0-9.7-3.2-9.8-9.1v-21h-5.9V78.7z"/>
	<path class="st1" d="M577.2,96.4c0-6.1-3.1-12.5-10.1-12.5c-7,0-10.1,6.4-10.1,12.5c0,6.2,3.1,12.6,10.1,12.6
		C574.1,109,577.2,102.6,577.2,96.4 M549.1,96.4c0-10.9,6.5-18.7,17.9-18.7c11.4,0,17.9,7.8,17.9,18.7c0,10.9-6.5,18.8-17.9,18.8
		C555.7,115.2,549.1,107.3,549.1,96.4"/>
	<path class="st1" d="M591.5,78.7h7.3v6.9h0.1c0.9-3.8,5.6-7.8,10.4-7.8c1.8,0,2.3,0.1,2.9,0.2v7.6c-1.1-0.1-2.3-0.3-3.4-0.3
		c-5.4,0-9.6,4.3-9.6,12.2v16.9h-7.8V78.7z"/>
	<path class="st2" d="M24.8,87.1h-7.2v16.2c0,2.8,1.6,3.4,4.2,3.4c1,0,2-0.1,3-0.1v8.6c-2.1,0.1-4.3,0.3-6.4,0.3
		c-10,0-12.5-2.9-12.5-12.6V87.1H0v-7.6h5.9V68.7h11.7v10.8h7.2V87.1z"/>
	<path class="st2" d="M30.4,79.5h11.3v6.3h0.1c1.7-4.5,5.7-6.9,10.7-6.9c0.9,0,1.9,0.1,2.7,0.3v10.6c-1.5-0.4-2.9-0.7-4.5-0.7
		c-5.8,0-8.8,4-8.8,8.4v17.7H30.4V79.5z"/>
	<path class="st2" d="M94.7,115.2H83.4v-4.9h-0.1c-2.2,3.6-6.7,5.9-10.9,5.9c-10.2,0-13.2-5.9-13.2-15.2V79.5h11.7v20.7
		c0,4.7,2.1,6.4,5.8,6.4c2.5,0,6.4-1.6,6.4-8V79.5h11.7V115.2z"/>
	<path class="st2" d="M111.6,103.4c0,1.8,0.8,3.1,1.9,4c1.1,0.8,2.7,1.2,4.3,1.2c2.3,0,5.5-1,5.5-3.8c0-2.7-3.6-3.3-5.7-3.8
		c-7.4-1.9-16.6-2.1-16.6-11.7c0-8.6,9.3-10.9,16.3-10.9c7.8,0,16,2.3,16.4,11.5H123c0-1.5-0.6-2.5-1.5-3.1c-1-0.6-2.3-0.9-3.7-0.9
		c-1.9,0-5,0.2-5,2.7c0,3.4,7.8,4,13.2,5.2c7.2,1.4,9.1,6.7,9.1,9.6c0,9.5-9.1,12.7-17.1,12.7c-8.4,0-17.1-2.8-17.4-12.8H111.6z"/>
	<path class="st2" d="M162.2,87.1H155v16.2c0,2.8,1.6,3.4,4.2,3.4c1,0,2-0.1,3-0.1v8.6c-2.1,0.1-4.3,0.3-6.4,0.3
		c-10,0-12.5-2.9-12.5-12.6V87.1h-5.9v-7.6h5.9V68.7H155v10.8h7.2V87.1z"/>
	<path class="st2" d="M312.1,184.6l16.9,9.8l16.9-9.8v-19.6l-16.9-9.8l-16.9,9.8V184.6z M329,197.9l-20-11.5v-23.1l20-11.5l20,11.5
		v23.1L329,197.9z"/>
	<path class="st2" d="M382.2,203.2h19.6l9.8-16.9l-9.8-16.9h-19.6l-9.8,16.9L382.2,203.2z M403.5,206.3h-23.1l-11.5-20l11.5-20h23.1
		l11.5,20L403.5,206.3z"/>
	<g>
		<defs>
			<rect id="SVGID_3_" y="0" width="632.5" height="233.3"/>
		</defs>
		<clipPath id="SVGID_4_">
			<use xlink:href="#SVGID_3_"  style="overflow:visible;"/>
		</clipPath>
		<path class="st3" d="M131.7,184.9h19.6L161,168l-9.8-16.9h-19.6l-9.8,16.9L131.7,184.9z M153,188h-23.1l-11.5-20l11.5-20H153
			l11.5,20L153,188z"/>
		<path class="st3" d="M316.5,32.8l16.9,9.8l16.9-9.8V13.3l-16.9-9.8l-16.9,9.8V32.8z M333.5,46.1l-20-11.5V11.5l20-11.5l20,11.5
			v23.1L333.5,46.1z"/>
	</g>
	<path class="st1" d="M139.9,186.4c0-5.1-4.1-9.2-9.2-9.2c-5.1,0-9.2,4.1-9.2,9.2c0,5.1,4.1,9.2,9.2,9.2
		C135.8,195.6,139.9,191.5,139.9,186.4"/>
	<path class="st1" d="M338.2,153.5c0-5.1-4.1-9.2-9.2-9.2c-5.1,0-9.2,4.1-9.2,9.2c0,5.1,4.1,9.2,9.2,9.2
		C334.1,162.7,338.2,158.6,338.2,153.5"/>
	<path class="st1" d="M407.2,204.2c0-3.3-2.7-6-6-6c-3.3,0-6,2.7-6,6c0,3.3,2.7,6,6,6C404.5,210.2,407.2,207.5,407.2,204.2"/>
	<path class="st1" d="M330.1,33.7c0-8.3-6.7-15-15-15c-8.3,0-15,6.7-15,15s6.7,15,15,15C323.3,48.8,330.1,42,330.1,33.7"/>
	
		<rect x="164.6" y="117.2" transform="matrix(0.6813 0.732 -0.732 0.6813 152.8291 -78.1533)" class="st2" width="3" height="38.4"/>
	<rect x="347.5" y="184" class="st2" width="24.8" height="3"/>
	
		<rect x="292.4" y="24.3" transform="matrix(0.6676 0.7445 -0.7445 0.6676 136.9077 -201.3055)" class="st1" width="3" height="56.8"/>
	
		<rect x="290.6" y="116" transform="matrix(-0.7449 0.6672 -0.6672 -0.7449 606.0842 56.997)" class="st2" width="3" height="56.8"/>
	<path class="st1" d="M182.3,122.9l44.7,25.8l44.7-25.8V71.3L227,45.5l-44.7,25.8V122.9z M227,154.5l-49.7-28.7V68.4L227,39.7
		l49.7,28.7v57.4L227,154.5z"/>
	<polygon class="st1" points="227,142.4 187.7,119.8 187.7,74.4 227,51.7 266.3,74.4 266.3,119.8 	"/>
	<path class="st4" d="M208.3,89.7V79.6c7.9,0.2,16.1-2.8,16.7-11.7h11.4v56.5h-14.6V89.7H208.3z"/>
</g>
</svg>
