<?xml version="1.0" encoding="UTF-8"?>
<!-- Generator: Adobe Illustrator 17.0.0, SVG Export Plug-In . SVG Version: 6.00 Build 0)  -->
<!DOCTYPE svg PUBLIC "-//W3C//DTD SVG 1.1//EN" "http://www.w3.org/Graphics/SVG/1.1/DTD/svg11.dtd">
<svg version="1.1" id="Calque_1" xmlns="http://www.w3.org/2000/svg" xmlns:xlink="http://www.w3.org/1999/xlink" x="0px" y="0px" width="187.09px" height="73.7px" viewBox="0 0 187.09 73.7" enable-background="new 0 0 187.09 73.7" xml:space="preserve">
<rect fill="none" width="187.087" height="73.701"/>
<path d="M78.476,17.75c-1.785,0-3.151,0.669-4.125,2.007h-0.057v-5.024h-0.001c-0.013-1.295-1.068-2.341-2.366-2.341  c-1.298,0-2.353,1.046-2.365,2.341h-0.007V30.82c0,1.273,1.033,2.305,2.305,2.305c1.051,0,1.938-0.704,2.215-1.665l0.023-0.499h0.03  c0.92,1.367,2.313,2.09,3.986,2.09c4.543,0,6.467-3.901,6.467-7.971C84.58,21.318,82.573,17.75,78.476,17.75z M76.997,29.429  c-2.145,0-2.87-1.644-2.87-4.18c0-2.984,1.616-3.875,2.898-3.875c2.091,0,2.815,2.035,2.815,3.875  C79.841,27.229,79.116,29.429,76.997,29.429z M101.316,23.648c-0.745-3.454-3.224-5.899-7.33-5.899c-4.264,0-7.804,3.178-7.804,7.61  c0,4.851,3.206,7.692,7.916,7.692c1.763,0,3.365-0.31,5.274-1.719c0.16-0.101,0.486-0.317,0.681-0.526  c0.304-0.304,0.491-0.724,0.491-1.193c0-0.933-0.755-1.688-1.685-1.688c-0.474,0-0.902,0.191-1.208,0.5  c-1.791,1.708-3.496,1.422-3.496,1.422c-2.009,0-3.151-1.31-3.235-3.288l7.643,0.006c3.428,0,2.753-2.911,2.753-2.911V23.648z   M90.921,23.91c0.278-1.756,1.394-2.953,3.066-2.953c1.588,0,2.731,1.337,2.816,2.953H90.921z M60.064,17.704  c-4.243,0-7.683,3.44-7.683,7.684c0,4.242,3.44,7.682,7.683,7.682c4.242,0,7.682-3.44,7.682-7.682  C67.747,21.144,64.307,17.704,60.064,17.704z M60.064,28.992c-1.992,0-3.605-1.614-3.605-3.603c0-1.994,1.614-3.607,3.605-3.607  c1.991,0,3.606,1.613,3.606,3.607C63.67,27.377,62.056,28.992,60.064,28.992z M173.51,17.745v-0.002h-0.05  c-0.034,0-0.068-0.002-0.103-0.002c-2.033,0-3.65,1.495-4.348,3.335h-0.055V20.08h-0.002c-0.004-1.298-1.059-2.348-2.357-2.348  c-1.296,0-2.353,1.05-2.356,2.348v10.588c0,1.34,1.088,2.43,2.428,2.43c1.344,0,2.429-1.09,2.429-2.43v-5.192  c0-1.811,1.225-3.581,3.564-3.581c0.198,0,0.386,0.011,0.572,0.029c0.076,0.01,0.153,0.015,0.232,0.015c1.16,0,2.1-0.938,2.1-2.098  C175.565,18.696,174.648,17.767,173.51,17.745z M159.254,17.731c-1.307,0-2.374,1.059-2.375,2.365v7.099  c0,1.517-1.199,2.322-2.462,2.322c-1.365,0-2.47-0.958-2.47-2.322v-7.099c-0.003-1.307-1.064-2.365-2.369-2.365  c-1.307,0-2.366,1.061-2.366,2.368v6.768c0,0.607,0.035,1.174,0.102,1.705c0.432,2.344,2.338,4.165,4.723,4.465  c0.173,0.009,0.344,0.018,0.526,0.018c0.586,0,1.195-0.066,1.776-0.211c0.992-0.305,1.866-0.881,2.534-1.642  c0.03-0.048,0.064-0.093,0.094-0.142h0.028l0.034,0.002c0.158,1.121,1.122,1.984,2.286,1.984c1.278,0,2.309-1.035,2.309-2.31V20.1  C161.624,18.792,160.561,17.731,159.254,17.731z M144.862,23.944c0-0.606-0.033-1.174-0.102-1.705  c-0.429-2.342-2.338-4.163-4.724-4.463c-0.171-0.009-0.341-0.019-0.523-0.019c-0.588,0-1.196,0.065-1.777,0.212  c-0.992,0.304-1.864,0.879-2.531,1.643c-0.035,0.046-0.065,0.09-0.096,0.139h-0.067l0.004-5.452  c-0.157-1.121-1.121-1.983-2.286-1.983c-1.275,0-2.308,1.034-2.308,2.309v16.088c0,1.307,1.062,2.368,2.368,2.368  c1.307,0,2.375-1.059,2.376-2.364v-7.099c0-1.519,1.198-2.322,2.463-2.322c1.364,0,2.469,0.956,2.469,2.322v7.099  c0.002,1.306,1.063,2.364,2.368,2.364c1.309,0,2.367-1.062,2.367-2.368c0-0.004-0.001-0.007-0.001-0.011V23.944z M125.764,29.41  c-0.771,0.21-1.29,0.032-1.644-0.207c-0.589-0.4-0.544-1.645-0.544-1.645v-6.627h2.473c0.846,0,1.533-0.684,1.533-1.53  c0-0.847-0.688-1.534-1.533-1.534h-2.477v-3.106h-0.003c0-1.307-1.061-2.367-2.365-2.367c-1.309,0-2.368,1.06-2.368,2.367h-0.003  v3.106h-1.509c-0.848,0-1.534,0.688-1.534,1.534c0,0.846,0.687,1.53,1.534,1.53h1.512v7.075c0,4.85,3.283,5.909,7.951,4.441  c1.202-0.352,1.127-1.538,1.127-1.538C127.914,28.712,125.764,29.41,125.764,29.41z M112.673,17.743V17.74h-0.048  c-0.034-0.001-0.068-0.002-0.103-0.002c-2.035,0-3.651,1.494-4.349,3.334h-0.055v-0.996h-0.003  c-0.004-1.297-1.058-2.348-2.356-2.348c-1.298,0-2.353,1.051-2.356,2.348v10.587c0,1.341,1.088,2.429,2.431,2.429  c1.342,0,2.426-1.088,2.426-2.429v-5.192c0-1.812,1.224-3.581,3.566-3.581c0.197,0,0.384,0.011,0.57,0.03  c0.077,0.009,0.155,0.014,0.235,0.014c1.159,0,2.096-0.939,2.096-2.099C114.728,18.692,113.813,17.765,112.673,17.743z"/>
<path fill="#2699D1" d="M102.258,37.289c-0.468,0-0.482,0.424-0.482,0.599l0.072,8.599l-5.817-8.611  c-0.279-0.411-0.397-0.571-0.688-0.571c-0.586,0-0.586,0.526-0.586,0.966v9.02c0,0.382,0,0.819,0.498,0.819  c0.539,0,0.481-0.466,0.481-0.804l-0.072-8.292l5.73,8.468c0.308,0.451,0.426,0.612,0.733,0.612c0.217,0,0.351-0.087,0.424-0.161  c0.203-0.175,0.203-0.336,0.203-0.86v-8.965C102.755,37.727,102.755,37.289,102.258,37.289z M91.317,37.289  c-0.481,0-0.512,0.453-0.512,0.805v3.89h-6.009v-3.876c0-0.38-0.016-0.818-0.511-0.818c-0.484,0-0.484,0.453-0.484,0.818v9.183  c0,0.382,0,0.819,0.484,0.819c0.495,0,0.511-0.452,0.511-0.819v-4.444h6.009v4.46c0,0.366,0.03,0.804,0.527,0.804  c0.467,0,0.467-0.438,0.467-0.804v-9.212C91.8,37.727,91.8,37.289,91.317,37.289z M80.947,44.308c-0.467,0-0.438,0.849-0.962,1.579  c-0.659,0.906-1.697,1.419-2.838,1.419c-1.608,0-3.713-1.038-3.713-4.563c0-4.194,2.923-4.636,3.86-4.636  c0.804,0,1.33,0.265,1.667,0.468c0.496,0.307,0.892,0.761,1.139,1.213c0.439,0.806,0.467,0.864,0.732,0.864  c0.352,0,0.424-0.322,0.424-0.408c0-0.413-1.009-2.955-4.037-2.955c-2.864,0-4.825,2.164-4.825,5.396  c0,1.565,0.644,5.438,4.767,5.438c3.232,0,4.21-2.746,4.21-3.421C81.37,44.438,81.166,44.308,80.947,44.308z M69.848,47.071h-5.381  v-4.094h4.737c0.322,0,0.716,0,0.716-0.438c0-0.425-0.395-0.425-0.716-0.425h-4.737v-3.788h5.146c0.337,0,0.733,0.029,0.733-0.425  c0-0.438-0.41-0.438-0.733-0.438h-5.307c-0.731,0-0.834,0.087-0.834,0.837v8.801c0,0.746,0.089,0.832,0.834,0.832h5.543  c0.322,0,0.716,0,0.716-0.44C70.564,47.117,70.212,47.071,69.848,47.071z M60.809,37.464H54.55c-0.337,0-0.76,0-0.76,0.468  c0,0.454,0.423,0.454,0.76,0.454h2.632v8.904c0,0.381,0,0.819,0.498,0.819c0.496,0,0.496-0.452,0.496-0.819v-8.904h2.633  c0.337,0,0.761,0,0.761-0.468C61.569,37.464,61.146,37.464,60.809,37.464z M144.81,42.715h-2.823c-0.321,0-0.717,0-0.717,0.438  c0,0.439,0.468,0.426,0.776,0.426h2.733v2.572c-0.614,0.526-1.944,1.14-3.452,1.14c-1.738,0-4.11-1.08-4.11-4.621  c0-2.838,1.669-4.562,4.097-4.562c2.251,0,2.881,1.374,3.247,2.003c0.189,0.322,0.321,0.483,0.526,0.483  c0.101,0,0.469-0.074,0.469-0.483c0-0.265-0.353-0.993-0.806-1.52c-0.833-0.966-2.122-1.303-3.407-1.303  c-3.377,0-5.161,2.43-5.161,5.469c0,3.13,1.87,5.352,5.307,5.352c2.37,0,3.992-1.227,4.168-1.432c0.117-0.117,0.117-0.146,0.117-0.6  v-2.604c0-0.292,0-0.394-0.059-0.482C145.538,42.715,145.304,42.715,144.81,42.715z M159.434,47.071h-5.381v-4.094h4.739  c0.322,0,0.714,0,0.714-0.438c0-0.425-0.392-0.425-0.714-0.425h-4.739v-3.788h5.148c0.335,0,0.732,0.029,0.732-0.425  c0-0.438-0.411-0.438-0.732-0.438h-5.308c-0.729,0-0.834,0.087-0.834,0.837v8.801c0,0.746,0.087,0.832,0.834,0.832h5.541  c0.322,0,0.717,0,0.717-0.44C160.15,47.117,159.8,47.071,159.434,47.071z M149.239,37.289c-0.48,0-0.497,0.453-0.497,0.818v9.183  c0,0.381,0.018,0.819,0.514,0.819c0.482,0,0.482-0.452,0.482-0.819v-9.183C149.738,37.742,149.738,37.289,149.239,37.289z   M168.196,42.788c-0.497-0.294-0.95-0.469-2.617-0.835c-0.935-0.205-2.37-0.525-2.37-1.931c0-1.052,0.95-1.915,2.383-1.915  c0.674,0,2.092,0.163,2.516,1.724c0.059,0.222,0.133,0.558,0.483,0.558c0.232,0,0.453-0.19,0.453-0.558  c0-0.233-0.103-0.714-0.338-1.108c-0.73-1.26-2.266-1.434-3.025-1.434c-2.326,0-3.409,1.329-3.409,2.837  c0,1.11,0.602,1.755,1.069,2.076c0.586,0.409,1.053,0.513,2.998,0.95c0.699,0.161,2.148,0.483,2.148,1.989  c0,1.55-1.61,2.148-2.882,2.148c-0.657,0-1.434-0.159-2.003-0.67c-0.439-0.398-0.497-0.747-0.803-1.671  c-0.029-0.086-0.105-0.351-0.409-0.351c-0.207,0-0.44,0.177-0.44,0.456c0,0.481,0.233,1.037,0.365,1.302  c0.572,1.154,1.697,1.753,3.408,1.753c2.604,0,3.699-1.578,3.699-3.098C169.424,44.5,169.233,43.402,168.196,42.788z   M123.307,47.071h-4.723v-8.964c0-0.366-0.016-0.819-0.514-0.819c-0.48,0-0.48,0.454-0.48,0.819v8.994  c0,0.746,0.087,0.831,0.832,0.831h4.885c0.336,0,0.729,0,0.729-0.438C124.035,47.071,123.627,47.071,123.307,47.071z   M129.175,37.289c-3.831,0-4.869,3.217-4.869,5.411c0,2.119,0.978,5.409,4.869,5.409c3.831,0,4.884-3.187,4.884-5.409  C134.059,40.594,133.078,37.289,129.175,37.289z M131.938,46.063c-0.703,0.805-1.799,1.228-2.763,1.228  c-0.949,0-2.048-0.423-2.765-1.228c-0.979-1.113-1.066-2.749-1.066-3.362c0-1.215,0.276-2.443,1.066-3.364  c1.009-1.141,2.413-1.229,2.765-1.229c0.393,0,1.827,0.116,2.763,1.229c0.894,1.038,1.082,2.383,1.082,3.364  C133.02,43.313,132.932,44.949,131.938,46.063z M110.156,37.289c-3.832,0-4.869,3.217-4.869,5.411c0,2.119,0.982,5.409,4.869,5.409  c3.832,0,4.885-3.187,4.885-5.409C115.041,40.594,114.063,37.289,110.156,37.289z M112.92,46.063  c-0.7,0.805-1.798,1.228-2.764,1.228c-0.949,0-2.047-0.423-2.763-1.228c-0.979-1.113-1.069-2.749-1.069-3.362  c0-1.215,0.281-2.443,1.069-3.364c1.01-1.141,2.412-1.229,2.763-1.229c0.396,0,1.829,0.116,2.764,1.229  c0.893,1.038,1.085,2.383,1.085,3.364C114.005,43.313,113.915,44.949,112.92,46.063z"/>
<g>
	<path d="M56.012,55.863v4.81h-0.597v-4.81H53.84V55.32h3.748v0.543H56.012z"/>
	<path d="M66.51,60.673v-2.524h-2.661v2.524h-0.597V55.32h0.597v2.286h2.661V55.32h0.597v5.353H66.51z"/>
	<path d="M73.102,60.673V55.32h3.236v0.543h-2.639v1.682h1.529v0.543h-1.529v2.042h2.754v0.543H73.102z"/>
	<path d="M92.571,60.673v-1.276c0-0.528,0.007-1.011,0.03-1.424c-0.16,0.398-0.436,1.019-0.619,1.401l-0.703,1.482l-0.705-1.482   c-0.183-0.383-0.459-1.003-0.619-1.401c0.022,0.413,0.03,0.896,0.03,1.424v1.276h-1.391V55.32h1.36l0.658,1.429   c0.321,0.689,0.589,1.316,0.673,1.614c0.091-0.307,0.336-0.887,0.673-1.614l0.657-1.429h1.346v5.353H92.571z"/>
	<path d="M108.308,60.757c-1.31,0-2.165-1.186-2.165-2.753c0-1.591,0.894-2.768,2.188-2.768c0.734,0,1.284,0.275,1.706,0.856   l-0.498,0.359c-0.32-0.451-0.642-0.672-1.223-0.672c-0.917,0-1.576,0.909-1.576,2.209c0,1.309,0.681,2.226,1.584,2.226   c0.65,0,0.985-0.29,1.299-0.703l0.436,0.344C109.684,60.382,109.134,60.757,108.308,60.757z"/>
	<path d="M117.743,60.757c-1.33,0-2.21-1.14-2.21-2.753s0.896-2.768,2.227-2.768c1.33,0,2.218,1.141,2.218,2.753   C119.977,59.602,119.074,60.757,117.743,60.757z M117.735,55.779c-0.924,0-1.606,0.863-1.606,2.209   c0,1.347,0.704,2.226,1.638,2.226c0.926,0,1.613-0.863,1.613-2.21C119.38,56.657,118.67,55.779,117.735,55.779z"/>
	<path d="M129.788,60.673v-3.624v-0.574c-0.054,0.206-0.206,0.604-0.322,0.887l-1.43,3.449l-1.407-3.449   c-0.114-0.275-0.259-0.681-0.314-0.887v0.574v3.624h-0.572V55.32h0.665l1.262,3.203c0.131,0.321,0.321,0.819,0.383,1.04   c0.068-0.229,0.261-0.727,0.382-1.04l1.277-3.203h0.65v5.353H129.788z"/>
	<path d="M138.251,58.57h-1.3v2.103h-0.597V55.32h2.005c0.972,0,1.704,0.512,1.704,1.598   C140.063,57.981,139.321,58.57,138.251,58.57z M138.335,55.863h-1.384v2.164h1.308c0.819,0,1.208-0.375,1.208-1.086   C139.467,56.253,139.069,55.863,138.335,55.863z"/>
	<path d="M149.118,60.673l-0.459-1.361h-2.211l-0.466,1.361h-0.612l1.859-5.353h0.658l1.857,5.353H149.118z M147.888,57.01   c-0.123-0.353-0.276-0.834-0.33-1.056c-0.054,0.215-0.207,0.696-0.336,1.071l-0.589,1.743h1.843L147.888,57.01z"/>
	<path d="M158.737,60.673l-2.341-3.663c-0.113-0.184-0.314-0.535-0.383-0.673v0.366v3.97h-0.572V55.32h0.581l2.316,3.731   c0.116,0.184,0.314,0.535,0.383,0.673v-0.367V55.32h0.574v5.353H158.737z"/>
	<path d="M167.378,58.547v2.126h-0.597v-2.119l-1.835-3.233h0.681l0.855,1.536c0.215,0.39,0.452,0.834,0.604,1.147   c0.154-0.313,0.393-0.765,0.605-1.147l0.857-1.536h0.666L167.378,58.547z"/>
</g>
<linearGradient id="SVGID_1_" gradientUnits="userSpaceOnUse" x1="12.3599" y1="30.2188" x2="49.6445" y2="30.2188">
	<stop offset="0" style="stop-color:#00538D"/>
	<stop offset="0.3965" style="stop-color:#0069A4"/>
	<stop offset="1" style="stop-color:#2699D1"/>
</linearGradient>
<path fill="url(#SVGID_1_)" d="M27.365,35.17h1.362c0.318,0,0.578-0.261,0.578-0.579v-8.103c1.009,0.155,1.728,0.464,2.712,0.884  c0.274,0.117,0.414,0.168,0.685,0.16c0.654-0.021,1.233-0.473,1.233-1.127c0-0.406-0.209-0.763-0.52-0.977  c-1.523-1.039-3.702-1.567-5.585-1.567c-5.296,0-9.56,4.075-9.56,9.176c0,5.149,3.94,9.235,9.59,9.235  c2.782,0,5.901-1.88,6.446-3.357c0,0-2.476,2.279-6.213,2.279c-4.243,0-7.683-3.313-7.683-7.399c0-3.735,2.503-6.753,6.376-7.308  v8.104C26.787,34.909,27.047,35.17,27.365,35.17z M14.79,31.259c0-5.054,2.439-9.54,6.203-12.343  c-5.113,2.5-8.634,7.751-8.634,13.826c0,8.494,6.886,15.382,15.38,15.382c3.44,0,6.616-1.131,9.178-3.038  c-2.037,0.996-4.327,1.555-6.747,1.555C21.677,46.64,14.79,39.753,14.79,31.259z M28.785,18.979c-2.945,0-5.664,0.966-7.858,2.599  c1.75-0.859,3.718-1.341,5.799-1.341c7.276,0,13.174,5.899,13.174,13.175c0,4.33-2.09,8.174-5.316,10.574  c4.369-2.145,7.376-6.637,7.376-11.832C41.959,24.877,36.061,18.979,28.785,18.979z M30.842,12.314  c-4.178,0-8.038,1.363-11.16,3.668c2.48-1.205,5.264-1.88,8.206-1.88c10.384,0,18.803,8.418,18.803,18.803  c0,6.205-3.007,11.71-7.643,15.136c6.273-3.049,10.597-9.481,10.597-16.924C49.645,20.733,41.227,12.314,30.842,12.314z"/>
</svg>