<svg xmlns="http://www.w3.org/2000/svg" xmlns:xlink="http://www.w3.org/1999/xlink" viewBox="0 0 632.48 210.2"><defs><style>.cls-1{fill:none;}.cls-2{clip-path:url(#clip-path);}.cls-3{fill:#f15a29;}.cls-4{fill:#bcbec0;}.cls-5{fill:#fff;}</style><clipPath id="clip-path"><rect class="cls-1" width="632.48" height="233.28"/></clipPath></defs><title>T1C</title><g id="Layer_2" data-name="Layer 2"><g id="Layer_1-2" data-name="Layer 1"><g class="cls-2"><path class="cls-3" d="M625.63,69.31A5.41,5.41,0,1,0,631,74.72a5.42,5.42,0,0,0-5.41-5.41m0,12.26a6.85,6.85,0,1,1,6.85-6.85,6.86,6.86,0,0,1-6.85,6.85"/></g><path class="cls-3" d="M624.38,74.28h1.48a.72.72,0,0,0,.81-.8c0-.5-.4-.73-.89-.73h-1.4Zm-1.76-2.93h3.45c1.19,0,2.36.54,2.36,1.9a1.74,1.74,0,0,1-1.06,1.69v0c.72.17.93,1,1,1.62,0,.29,0,1.28.29,1.52H626.9a3.33,3.33,0,0,1-.2-1.08c0-.68-.16-1.38-1-1.38h-1.33V78.1h-1.76Z"/><path class="cls-3" d="M317.76,90.58c-.62-4.33-3.78-6.66-8.1-6.66-4.05,0-9.75,2.13-9.75,12.91,0,5.91,2.61,12.16,9.41,12.16,4.53,0,7.69-3,8.45-8.11h7.83c-1.44,9.21-7.14,14.29-16.28,14.29-11.13,0-17.24-7.9-17.24-18.34,0-10.72,5.84-19.1,17.52-19.1,8.25,0,15.25,4.12,16,12.85Z"/><path class="cls-3" d="M358.35,96.42c0-6.11-3.09-12.5-10.1-12.5s-10.1,6.39-10.1,12.5S341.25,109,348.26,109s10.1-6.39,10.1-12.57m-28,0c0-10.85,6.53-18.68,17.93-18.68s17.93,7.83,17.93,18.68-6.53,18.75-17.93,18.75-17.93-7.83-17.93-18.75"/><path class="cls-3" d="M372.7,78.7h7.42v5.22l.14.14a12.72,12.72,0,0,1,11.06-6.32c7.69,0,12.57,4.12,12.57,12.09v24.39h-7.83V91.89c-.14-5.56-2.34-8-6.94-8-5.22,0-8.59,4.12-8.59,9.34v21H372.7Z"/><path class="cls-3" d="M412.12,78.7h7.42v5.22l.14.14a12.72,12.72,0,0,1,11.06-6.32c7.69,0,12.57,4.12,12.57,12.09v24.39h-7.83V91.89c-.14-5.56-2.34-8-6.94-8-5.22,0-8.59,4.12-8.59,9.34v21h-7.83Z"/><path class="cls-3" d="M475.93,93.33c-.27-4.95-3.64-9.41-8.93-9.41s-9.14,4.12-9.34,9.41Zm-18.27,5.15c0,5.57,3,10.51,9.55,10.51,4.53,0,7.28-2,8.66-5.91h7.42c-1.72,7.76-8.31,12.09-16.07,12.09-11.13,0-17.38-7.76-17.38-18.68,0-10.1,6.59-18.75,17.18-18.75,11.2,0,18.06,10.1,16.76,20.74Z"/><path class="cls-3" d="M513.71,90.58c-.62-4.33-3.78-6.66-8.11-6.66-4.05,0-9.75,2.13-9.75,12.91,0,5.91,2.61,12.16,9.41,12.16,4.53,0,7.69-3,8.45-8.11h7.83c-1.44,9.21-7.14,14.29-16.28,14.29-11.13,0-17.24-7.9-17.24-18.34,0-10.72,5.84-19.1,17.52-19.1,8.24,0,15.25,4.12,16,12.85Z"/><path class="cls-3" d="M524.35,78.7h5.91V68.05h7.83V78.7h7.07v5.84h-7.07v19c0,3.23.27,4.88,3.78,4.88a13.46,13.46,0,0,0,3.3-.27v6c-1.72.14-3.36.41-5.08.41-8.17,0-9.68-3.16-9.82-9.07v-21h-5.91Z"/><path class="cls-3" d="M577.17,96.42c0-6.11-3.09-12.5-10.1-12.5S557,90.31,557,96.42,560.06,109,567.07,109s10.1-6.39,10.1-12.57m-28,0c0-10.85,6.53-18.68,17.93-18.68S585,85.57,585,96.42s-6.52,18.75-17.93,18.75-17.93-7.83-17.93-18.75"/><path class="cls-3" d="M591.51,78.7h7.35v6.87H599c.89-3.78,5.56-7.83,10.37-7.83a18.51,18.51,0,0,1,2.95.21V85.5a28,28,0,0,0-3.37-.34c-5.36,0-9.61,4.33-9.61,12.16v16.9h-7.83Z"/><path class="cls-4" d="M24.8,87.08H17.58v16.21c0,2.82,1.65,3.43,4.19,3.43,1,0,2-.14,3-.14v8.59c-2.13.07-4.26.34-6.39.34-10,0-12.5-2.89-12.5-12.57V87.08H0V79.53H5.91V68.74H17.58V79.53H24.8Z"/><path class="cls-4" d="M30.42,79.52H41.76v6.25h.14c1.72-4.53,5.7-6.94,10.72-6.94a12.36,12.36,0,0,1,2.75.28V89.76a16.3,16.3,0,0,0-4.47-.69c-5.77,0-8.79,4-8.79,8.45v17.66H30.42Z"/><path class="cls-4" d="M94.72,115.18H83.38V110.3h-.14a13.13,13.13,0,0,1-10.85,5.91C62.15,116.2,59.2,110.3,59.2,101V79.52H70.88V100.2c0,4.74,2.06,6.39,5.77,6.39,2.54,0,6.39-1.65,6.39-8V79.52H94.72Z"/><path class="cls-4" d="M111.61,103.43a4.79,4.79,0,0,0,1.92,4,7.31,7.31,0,0,0,4.33,1.24c2.27,0,5.5-1,5.5-3.78s-3.64-3.3-5.7-3.78C110.3,99.24,101.1,99,101.1,89.42c0-8.59,9.27-10.92,16.28-10.92,7.83,0,16,2.27,16.42,11.54H123a3.36,3.36,0,0,0-1.51-3.09,6.91,6.91,0,0,0-3.71-.89c-1.92,0-5,.2-5,2.68,0,3.37,7.83,4,13.19,5.15,7.21,1.44,9.07,6.66,9.07,9.61,0,9.55-9.07,12.71-17.1,12.71-8.45,0-17.1-2.82-17.45-12.77Z"/><path class="cls-4" d="M162.23,87.08H155v16.21c0,2.82,1.65,3.43,4.19,3.43,1,0,2-.14,3-.14v8.59c-2.13.07-4.26.34-6.39.34-10,0-12.5-2.89-12.5-12.57V87.08h-5.91V79.53h5.91V68.74H155V79.53h7.21Z"/><path class="cls-4" d="M312.09,184.62,329,194.4,346,184.62V165.07L329,155.29l-16.93,9.78ZM329,197.91l-20-11.53V163.31l20-11.53,20,11.53v23.06Z"/><path class="cls-4" d="M382.24,203.21h19.55l9.78-16.94-9.78-16.93H382.24l-9.78,16.93Zm21.31,3H380.49l-11.53-20,11.53-20h23.06l11.53,20Z"/><g class="cls-2"><path class="cls-4" d="M131.67,184.92h19.56L161,168l-9.78-16.93H131.67L121.89,168ZM153,188H129.92l-11.53-20,11.53-20H153l11.53,20Z"/><path class="cls-4" d="M316.54,32.84l16.94,9.78,16.93-9.78V13.28L333.48,3.51l-16.94,9.78Zm16.94,13.29-20-11.53V11.53L333.48,0l20,11.53V34.6Z"/></g><path class="cls-3" d="M139.95,186.44a9.15,9.15,0,1,0-9.16,9.15,9.15,9.15,0,0,0,9.16-9.15"/><path class="cls-3" d="M338.18,153.53a9.15,9.15,0,1,0-9.15,9.16,9.15,9.15,0,0,0,9.15-9.16"/><path class="cls-3" d="M407.17,204.2a6,6,0,1,0-6,6,6,6,0,0,0,6-6"/><path class="cls-3" d="M330.06,33.72a15,15,0,1,0-15,15,15,15,0,0,0,15-15"/><rect class="cls-4" x="146.95" y="134.92" width="38.44" height="3.04" transform="translate(-48.42 149.78) rotate(-42.95)"/><rect class="cls-4" x="347.48" y="183.98" width="24.78" height="3.04"/><rect class="cls-3" x="265.5" y="51.14" width="56.77" height="3.04" transform="translate(39.92 209.64) rotate(-41.88)"/><rect class="cls-4" x="290.62" y="116" width="3.04" height="56.77" transform="translate(-21.8 231.76) rotate(-41.85)"/><path class="cls-3" d="M182.34,122.87,227,148.65l44.65-25.78V71.3L227,45.52,182.34,71.3ZM227,154.51l-49.73-28.71V68.38L227,39.66l49.73,28.71v57.42Z"/><polygon class="cls-3" points="226.99 142.45 187.71 119.77 187.71 74.41 226.99 51.72 266.28 74.41 266.28 119.77 226.99 142.45"/><path class="cls-5" d="M208.25,89.72V79.59c7.95.16,16.14-2.76,16.71-11.68h11.44v56.52H221.8V89.72Z"/></g></g></svg>